<svg width="20" height="28" viewBox="0 0 20 28" fill="none" xmlns="http://www.w3.org/2000/svg">
<g clip-path="url(#clip0_116_89)">
<path d="M0 13.5625C0 13.9531 0.140625 14.2969 0.4375 14.5938L12.8281 26.7031C13.0938 26.9844 13.4375 27.125 13.8438 27.125C14.6562 27.125 15.2812 26.5156 15.2812 25.7031C15.2812 25.2969 15.1094 24.9531 14.8594 24.6875L3.48438 13.5625L14.8594 2.4375C15.1094 2.17188 15.2812 1.8125 15.2812 1.42188C15.2812 0.609375 14.6562 0 13.8438 0C13.4375 0 13.0938 0.140625 12.8281 0.40625L0.4375 12.5312C0.140625 12.8125 0 13.1719 0 13.5625Z" fill="#828282"/>
</g>
<defs>
<clipPath id="clip0_116_89">
<rect width="19.625" height="27.1406" fill="white"/>
</clipPath>
</defs>
</svg>
