<svg width="30" height="40" viewBox="0 0 30 40" fill="none" xmlns="http://www.w3.org/2000/svg">
<g clip-path="url(#clip0_118_8)">
<path d="M0 21.1952C0 29.4025 6.66667 35.9883 14.9577 35.9883C23.2488 35.9883 29.8985 29.4025 29.8985 21.1952C29.8985 20.3928 29.3232 19.8078 28.4941 19.8078C27.6988 19.8078 27.1743 20.3928 27.1743 21.1952C27.1743 27.9148 21.7428 33.2971 14.9577 33.2971C8.17262 33.2971 2.7242 27.9148 2.7242 21.1952C2.7242 14.4923 8.17262 9.12663 14.9577 9.12663C16.2437 9.12663 17.4451 9.22692 18.4433 9.46093L13.3841 14.4087C13.1303 14.6761 12.9949 15.0105 12.9949 15.3615C12.9949 16.1304 13.5702 16.6987 14.3317 16.6987C14.7547 16.6987 15.0762 16.565 15.313 16.3143L22.2843 9.39407C22.5889 9.10988 22.7073 8.77557 22.7073 8.39115C22.7073 8.02341 22.555 7.65567 22.2843 7.38822L15.313 0.40117C15.0762 0.133723 14.7378 0 14.3317 0C13.5702 0 12.9949 0.601756 12.9949 1.37067C12.9949 1.72169 13.1303 2.056 13.3672 2.32345L17.868 6.7196C16.9882 6.55245 15.9898 6.43541 14.9577 6.43541C6.66667 6.43541 0 13.0046 0 21.1952Z" fill="black" fill-opacity="0.85"/>
</g>
<defs>
<clipPath id="clip0_118_8">
<rect width="30" height="40" fill="white"/>
</clipPath>
</defs>
</svg>
